<svg xmlns="http://www.w3.org/2000/svg" xmlns:xlink="http://www.w3.org/1999/xlink" width="512" zoomAndPan="magnify" viewBox="0 0 384 383.999986" height="512" preserveAspectRatio="xMidYMid meet" version="1.0"><defs><clipPath id="e7a1130243"><path d="M 98.464844 202 L 166 202 L 166 244 L 98.464844 244 Z M 98.464844 202 " clip-rule="nonzero"/></clipPath><clipPath id="4d092fb9ff"><path d="M 218 202 L 285.214844 202 L 285.214844 244 L 218 244 Z M 218 202 " clip-rule="nonzero"/></clipPath><clipPath id="4de2722131"><path d="M 155 217 L 229 217 L 229 258.636719 L 155 258.636719 Z M 155 217 " clip-rule="nonzero"/></clipPath><clipPath id="bb2c944bc8"><path d="M 158 93.636719 L 226 93.636719 L 226 161 L 158 161 Z M 158 93.636719 " clip-rule="nonzero"/></clipPath></defs><path fill="#ffffff" d="M 138.984375 150.773438 L 138.984375 139.382812 C 138.984375 134.671875 142.714844 130.941406 147.429688 130.941406 L 151.75 130.941406 C 151.550781 129.765625 151.550781 128.390625 151.550781 127.210938 C 151.550781 126.035156 151.550781 124.660156 151.75 123.480469 L 147.429688 123.480469 C 138.59375 123.480469 131.527344 130.550781 131.527344 139.382812 L 131.527344 150.773438 C 132.703125 150.574219 134.078125 150.574219 135.253906 150.574219 C 136.433594 150.574219 137.808594 150.574219 138.984375 150.773438 Z M 138.984375 150.773438 " fill-opacity="1" fill-rule="nonzero"/><path fill="#ffffff" d="M 237.15625 130.941406 C 241.671875 130.941406 245.597656 134.671875 245.597656 139.382812 L 245.597656 150.773438 C 246.777344 150.574219 248.148438 150.574219 249.328125 150.574219 C 250.703125 150.574219 251.878906 150.574219 253.058594 150.773438 L 253.058594 139.382812 C 253.058594 130.550781 245.992188 123.480469 237.15625 123.480469 L 232.835938 123.480469 C 233.03125 124.660156 233.03125 126.035156 233.03125 127.210938 C 233.03125 128.390625 233.03125 129.765625 232.835938 130.941406 Z M 237.15625 130.941406 " fill-opacity="1" fill-rule="nonzero"/><g clip-path="url(#e7a1130243)"><path fill="#ffffff" d="M 165.492188 215.367188 C 162.351562 209.476562 157.246094 204.960938 151.160156 202.410156 C 146.644531 205.550781 140.949219 207.316406 135.058594 207.316406 C 129.167969 207.316406 123.671875 205.550781 118.960938 202.410156 C 111.5 205.746094 105.414062 211.832031 102.664062 219.6875 C 100.503906 225.578125 99.128906 231.859375 98.738281 238.140625 C 98.539062 241.085938 100.898438 243.441406 103.839844 243.441406 L 149.589844 243.441406 C 150.375 239.710938 151.355469 235.984375 152.535156 232.449219 C 155.28125 225.578125 159.796875 219.6875 165.492188 215.367188 Z M 165.492188 215.367188 " fill-opacity="1" fill-rule="nonzero"/></g><path fill="#ffffff" d="M 135.253906 199.855469 C 146.839844 199.855469 156.066406 190.433594 156.066406 179.042969 C 156.066406 167.460938 146.644531 158.234375 135.253906 158.234375 C 123.867188 158.234375 114.445312 167.65625 114.445312 179.042969 C 114.246094 190.433594 123.671875 199.855469 135.253906 199.855469 Z M 135.253906 199.855469 " fill-opacity="1" fill-rule="nonzero"/><g clip-path="url(#4d092fb9ff)"><path fill="#ffffff" d="M 281.527344 219.6875 C 278.777344 211.636719 272.691406 205.550781 265.230469 202.410156 C 260.714844 205.550781 255.21875 207.316406 249.132812 207.316406 C 243.242188 207.316406 237.546875 205.550781 233.03125 202.410156 C 226.945312 204.960938 222.039062 209.476562 218.699219 215.367188 C 224.394531 219.6875 228.910156 225.578125 231.460938 232.644531 C 232.640625 236.179688 233.816406 239.910156 234.40625 243.640625 L 280.152344 243.640625 C 283.097656 243.640625 285.453125 241.285156 285.257812 238.339844 C 285.0625 231.859375 283.6875 225.578125 281.527344 219.6875 Z M 281.527344 219.6875 " fill-opacity="1" fill-rule="nonzero"/></g><path fill="#ffffff" d="M 249.132812 199.855469 C 260.714844 199.855469 269.945312 190.433594 269.945312 179.042969 C 269.945312 167.460938 260.519531 158.234375 249.132812 158.234375 C 237.546875 158.234375 228.320312 167.65625 228.320312 179.042969 C 228.320312 190.433594 237.742188 199.855469 249.132812 199.855469 Z M 249.132812 199.855469 " fill-opacity="1" fill-rule="nonzero"/><g clip-path="url(#4de2722131)"><path fill="#ffffff" d="M 208.292969 217.722656 C 203.777344 220.863281 198.28125 222.632812 192.195312 222.632812 C 186.304688 222.632812 180.804688 220.863281 176.09375 217.722656 C 168.632812 221.0625 162.742188 227.148438 159.796875 235.195312 C 157.636719 241.085938 156.460938 247.371094 155.871094 253.652344 C 155.675781 256.597656 158.03125 258.953125 160.976562 258.953125 L 223.410156 258.953125 C 226.355469 258.953125 228.710938 256.597656 228.515625 253.652344 C 228.125 247.371094 226.75 241.085938 224.589844 235.195312 C 221.644531 227.148438 215.753906 221.0625 208.292969 217.722656 Z M 208.292969 217.722656 " fill-opacity="1" fill-rule="nonzero"/></g><path fill="#ffffff" d="M 171.382812 194.359375 C 171.382812 205.941406 180.804688 215.171875 192.195312 215.171875 C 203.777344 215.171875 213.003906 205.746094 213.003906 194.359375 C 213.003906 182.773438 203.582031 173.546875 192.195312 173.546875 C 180.609375 173.546875 171.382812 182.773438 171.382812 194.359375 Z M 171.382812 194.359375 " fill-opacity="1" fill-rule="nonzero"/><g clip-path="url(#bb2c944bc8)"><path fill="#ffffff" d="M 192.195312 160.785156 C 210.648438 160.785156 225.765625 145.667969 225.765625 127.210938 C 225.765625 108.753906 210.648438 93.636719 192.195312 93.636719 C 173.738281 93.636719 158.621094 108.753906 158.621094 127.210938 C 158.621094 145.667969 173.738281 160.785156 192.195312 160.785156 Z M 188.660156 105.023438 C 189.640625 104.042969 190.820312 103.652344 192.390625 103.652344 C 193.960938 103.652344 195.140625 104.238281 196.121094 105.023438 C 197.101562 106.007812 197.691406 107.183594 197.691406 108.753906 C 197.691406 110.328125 197.101562 111.503906 196.121094 112.484375 C 195.140625 113.46875 193.960938 113.859375 192.390625 113.859375 C 190.820312 113.859375 189.640625 113.269531 188.660156 112.484375 C 187.679688 111.503906 187.089844 110.128906 187.089844 108.753906 C 187.089844 107.382812 187.679688 106.007812 188.660156 105.023438 Z M 183.359375 121.515625 C 183.359375 120.535156 183.949219 119.75 184.929688 119.75 L 192.390625 118.574219 C 192.390625 118.574219 192.585938 118.574219 192.78125 118.574219 L 194.746094 118.574219 C 195.726562 118.574219 196.511719 119.359375 196.511719 120.339844 L 196.511719 144.097656 C 196.511719 144.097656 199.65625 144.488281 199.65625 144.488281 C 200.441406 144.488281 201.226562 145.273438 201.226562 146.257812 L 201.226562 147.828125 C 201.226562 148.808594 200.441406 149.59375 199.457031 149.59375 L 185.125 149.59375 C 184.144531 149.59375 183.359375 148.808594 183.359375 147.828125 L 183.359375 146.257812 C 183.359375 145.273438 184.144531 144.488281 185.125 144.488281 L 188.464844 144.097656 L 188.464844 125.246094 L 184.929688 124.855469 C 183.949219 124.855469 183.164062 124.070312 183.164062 123.089844 L 183.164062 121.515625 Z M 183.359375 121.515625 " fill-opacity="1" fill-rule="nonzero"/></g></svg>