<svg xmlns="http://www.w3.org/2000/svg" xmlns:xlink="http://www.w3.org/1999/xlink" width="512" zoomAndPan="magnify" viewBox="0 0 384 383.999986" height="512" preserveAspectRatio="xMidYMid meet" version="1.0"><defs><clipPath id="bac05fb363"><path d="M 114.480469 103.371094 L 240.480469 103.371094 L 240.480469 257 L 114.480469 257 Z M 114.480469 103.371094 " clip-rule="nonzero"/></clipPath><clipPath id="313128a1e3"><path d="M 221.527344 169.980469 L 262 169.980469 L 262 246.480469 L 221.527344 246.480469 Z M 221.527344 169.980469 " clip-rule="nonzero"/></clipPath><clipPath id="369a93ada2"><path d="M 243 186 L 295.777344 186 L 295.777344 231 L 243 231 Z M 243 186 " clip-rule="nonzero"/></clipPath></defs><g clip-path="url(#bac05fb363)"><path fill="#ffffff" d="M 226.585938 169.160156 C 224.980469 169.984375 223.230469 170.769531 221.378906 171.503906 C 221.023438 171.644531 220.652344 171.714844 220.289062 171.714844 C 219.101562 171.714844 217.980469 170.996094 217.519531 169.816406 C 216.917969 168.277344 217.667969 166.539062 219.199219 165.933594 C 220.871094 165.269531 222.449219 164.558594 223.886719 163.824219 C 225.351562 163.074219 227.144531 163.660156 227.890625 165.136719 C 228.636719 166.609375 228.050781 168.410156 226.585938 169.160156 M 153.257812 173.78125 C 152.980469 175.210938 151.734375 176.203125 150.339844 176.203125 C 150.152344 176.203125 149.960938 176.183594 149.765625 176.144531 C 147.496094 175.699219 145.273438 175.195312 143.15625 174.640625 C 141.566406 174.222656 140.613281 172.589844 141.027344 170.988281 C 141.4375 169.386719 143.0625 168.425781 144.65625 168.84375 C 146.652344 169.367188 148.757812 169.84375 150.90625 170.265625 C 152.519531 170.585938 153.574219 172.15625 153.257812 173.78125 M 137.316406 169.816406 C 136.855469 170.992188 135.734375 171.714844 134.546875 171.714844 C 134.183594 171.714844 133.816406 171.644531 133.457031 171.503906 C 131.609375 170.769531 129.855469 169.984375 128.25 169.160156 C 126.785156 168.410156 126.203125 166.609375 126.949219 165.136719 C 127.695312 163.660156 129.484375 163.074219 130.949219 163.824219 C 132.386719 164.558594 133.964844 165.269531 135.640625 165.933594 C 137.167969 166.539062 137.921875 168.277344 137.316406 169.816406 M 225.441406 153.414062 C 231.699219 150.625 236.667969 147.34375 240.222656 143.726562 L 240.222656 166.5625 C 238.523438 171.964844 232.503906 177.25 223.125 181.425781 C 210.964844 186.84375 194.734375 189.824219 177.417969 189.824219 C 160.105469 189.824219 143.875 186.84375 131.714844 181.425781 C 122.335938 177.25 116.316406 171.964844 114.617188 166.566406 L 114.617188 143.726562 C 118.171875 147.34375 123.140625 150.625 129.398438 153.414062 C 142.273438 159.148438 159.328125 162.308594 177.417969 162.308594 C 195.511719 162.308594 212.566406 159.148438 225.441406 153.414062 Z M 220.777344 110.324219 C 233.347656 115.179688 240.269531 122.03125 240.269531 129.621094 C 240.269531 137.210938 233.347656 144.0625 220.777344 148.917969 C 209.152344 153.40625 193.75 155.878906 177.417969 155.878906 C 161.085938 155.878906 145.6875 153.40625 134.058594 148.917969 C 121.492188 144.0625 114.570312 137.210938 114.570312 129.621094 C 114.570312 122.03125 121.492188 115.179688 134.058594 110.324219 C 145.6875 105.835938 161.085938 103.363281 177.417969 103.363281 C 193.75 103.363281 209.152344 105.835938 220.777344 110.324219 Z M 227.890625 198.5 C 228.636719 199.972656 228.050781 201.777344 226.585938 202.527344 C 224.980469 203.347656 223.230469 204.136719 221.378906 204.867188 C 221.023438 205.011719 220.652344 205.078125 220.289062 205.078125 C 219.101562 205.078125 217.980469 204.359375 217.519531 203.179688 C 216.917969 201.640625 217.667969 199.902344 219.199219 199.296875 C 220.871094 198.632812 222.449219 197.921875 223.886719 197.1875 C 225.351562 196.4375 227.144531 197.023438 227.890625 198.5 M 153.257812 207.144531 C 152.980469 208.574219 151.734375 209.566406 150.339844 209.566406 C 150.152344 209.566406 149.960938 209.546875 149.765625 209.507812 C 147.496094 209.0625 145.273438 208.558594 143.15625 208.003906 C 141.566406 207.589844 140.613281 205.953125 141.027344 204.351562 C 141.4375 202.753906 143.0625 201.792969 144.65625 202.207031 C 146.652344 202.730469 148.757812 203.210938 150.90625 203.632812 C 152.519531 203.949219 153.574219 205.519531 153.257812 207.144531 M 137.316406 203.179688 C 136.855469 204.359375 135.734375 205.078125 134.546875 205.078125 C 134.183594 205.078125 133.816406 205.011719 133.457031 204.867188 C 131.609375 204.136719 129.855469 203.347656 128.25 202.523438 C 126.785156 201.777344 126.203125 199.972656 126.949219 198.5 C 127.695312 197.023438 129.484375 196.4375 130.949219 197.1875 C 132.386719 197.921875 133.964844 198.632812 135.640625 199.296875 C 137.167969 199.902344 137.921875 201.640625 137.316406 203.179688 M 177.421875 196.125 C 159.328125 196.125 142.273438 192.964844 129.398438 187.230469 C 123.140625 184.441406 118.171875 181.164062 114.617188 177.542969 L 114.617188 200.382812 C 116.316406 205.78125 122.335938 211.066406 131.714844 215.242188 C 143.875 220.660156 160.105469 223.644531 177.421875 223.644531 C 194.734375 223.644531 210.964844 220.660156 223.125 215.242188 C 232.503906 211.066406 238.523438 205.78125 240.222656 200.382812 L 240.222656 177.542969 C 236.667969 181.164062 231.699219 184.441406 225.441406 187.230469 C 212.566406 192.964844 195.511719 196.125 177.421875 196.125 M 227.890625 233.023438 C 228.636719 234.496094 228.050781 236.296875 226.585938 237.046875 C 224.980469 237.871094 223.230469 238.65625 221.378906 239.390625 C 221.023438 239.535156 220.652344 239.601562 220.289062 239.601562 C 219.101562 239.601562 217.980469 238.882812 217.519531 237.703125 C 216.917969 236.164062 217.667969 234.425781 219.199219 233.820312 C 220.875 233.15625 222.449219 232.445312 223.886719 231.710938 C 225.351562 230.960938 227.144531 231.546875 227.890625 233.023438 M 153.257812 241.667969 C 152.980469 243.097656 151.734375 244.089844 150.339844 244.089844 C 150.152344 244.089844 149.960938 244.070312 149.765625 244.03125 C 147.496094 243.585938 145.273438 243.082031 143.15625 242.527344 C 141.566406 242.109375 140.613281 240.476562 141.027344 238.875 C 141.4375 237.277344 143.0625 236.316406 144.65625 236.730469 C 146.652344 237.253906 148.757812 237.734375 150.90625 238.15625 C 152.519531 238.472656 153.574219 240.042969 153.257812 241.667969 M 137.316406 237.703125 C 136.855469 238.882812 135.734375 239.601562 134.546875 239.601562 C 134.183594 239.601562 133.816406 239.535156 133.457031 239.390625 C 131.605469 238.65625 129.855469 237.871094 128.25 237.046875 C 126.785156 236.296875 126.203125 234.496094 126.949219 233.023438 C 127.695312 231.546875 129.488281 230.960938 130.953125 231.710938 C 132.386719 232.445312 133.964844 233.15625 135.640625 233.820312 C 137.167969 234.425781 137.921875 236.164062 137.316406 237.703125 M 177.417969 229.398438 C 159.328125 229.398438 142.273438 226.238281 129.398438 220.503906 C 123.140625 217.714844 118.171875 214.4375 114.617188 210.820312 L 114.617188 233.65625 C 116.316406 239.058594 122.335938 244.339844 131.714844 248.519531 C 143.875 253.933594 160.105469 256.917969 177.417969 256.917969 C 194.734375 256.917969 210.964844 253.933594 223.125 248.519531 C 232.503906 244.339844 238.523438 239.058594 240.222656 233.65625 L 240.222656 210.820312 C 236.667969 214.4375 231.699219 217.714844 225.441406 220.503906 C 212.566406 226.238281 195.511719 229.398438 177.417969 229.398438 " fill-opacity="1" fill-rule="evenodd"/></g><path fill="#ffffff" d="M 258.550781 202.808594 C 258.359375 202.3125 257.886719 201.980469 257.347656 201.980469 C 256.8125 201.980469 256.339844 202.3125 256.144531 202.808594 L 252.308594 213.046875 C 252.066406 213.710938 252.398438 214.441406 253.0625 214.695312 C 253.726562 214.9375 254.457031 214.605469 254.714844 213.941406 L 255.367188 212.214844 L 259.34375 212.214844 L 259.996094 213.941406 C 260.1875 214.453125 260.675781 214.773438 261.199219 214.773438 C 261.351562 214.773438 261.507812 214.746094 261.648438 214.695312 C 262.3125 214.453125 262.644531 213.710938 262.390625 213.046875 Z M 256.324219 209.65625 L 257.363281 206.90625 L 258.398438 209.65625 Z M 256.324219 209.65625 " fill-opacity="1" fill-rule="nonzero"/><path fill="#ffffff" d="M 265.023438 201.980469 C 264.320312 201.980469 263.746094 202.554688 263.746094 203.257812 L 263.746094 213.492188 C 263.746094 214.195312 264.320312 214.773438 265.023438 214.773438 C 265.730469 214.773438 266.304688 214.195312 266.304688 213.492188 L 266.304688 203.257812 C 266.304688 202.554688 265.730469 201.980469 265.023438 201.980469 Z M 265.023438 201.980469 " fill-opacity="1" fill-rule="nonzero"/><g clip-path="url(#313128a1e3)"><path fill="#ffffff" d="M 259.90625 230.125 C 247.917969 230.125 238.160156 220.363281 238.160156 208.375 C 238.160156 196.386719 247.917969 186.625 259.90625 186.625 C 260.609375 186.625 261.1875 186.050781 261.1875 185.347656 L 261.1875 171.273438 C 261.1875 170.570312 260.609375 169.996094 259.90625 169.996094 L 253.164062 169.996094 C 252.578125 169.996094 252.066406 170.390625 251.925781 170.96875 L 250.09375 178.308594 C 248.535156 178.824219 247.023438 179.4375 245.589844 180.164062 L 239.105469 176.277344 C 238.605469 175.96875 237.953125 176.058594 237.542969 176.46875 L 228.011719 186 C 227.605469 186.410156 227.515625 187.0625 227.820312 187.558594 L 231.710938 194.046875 C 230.980469 195.480469 230.355469 196.988281 229.855469 198.550781 L 222.511719 200.378906 C 221.9375 200.519531 221.539062 201.03125 221.539062 201.621094 L 221.539062 215.105469 C 221.539062 215.695312 221.9375 216.207031 222.511719 216.347656 L 229.855469 218.175781 C 230.367188 219.738281 230.980469 221.246094 231.710938 222.679688 L 227.820312 229.164062 C 227.515625 229.664062 227.605469 230.316406 228.011719 230.726562 L 237.542969 240.257812 C 237.953125 240.667969 238.605469 240.757812 239.105469 240.449219 L 245.589844 236.558594 C 247.023438 237.289062 248.535156 237.917969 250.09375 238.414062 L 251.925781 245.757812 C 252.066406 246.335938 252.578125 246.730469 253.164062 246.730469 L 259.90625 246.730469 C 260.609375 246.730469 261.1875 246.15625 261.1875 245.453125 L 261.1875 231.378906 C 261.1875 230.675781 260.609375 230.097656 259.90625 230.097656 Z M 258.628906 244.199219 L 254.164062 244.199219 L 252.398438 237.121094 C 252.28125 236.6875 251.949219 236.34375 251.527344 236.203125 C 249.648438 235.640625 247.832031 234.898438 246.15625 233.988281 C 245.757812 233.769531 245.273438 233.785156 244.886719 234.015625 L 238.644531 237.761719 L 230.519531 229.636719 L 234.269531 223.394531 C 234.5 223.011719 234.511719 222.523438 234.292969 222.128906 C 233.386719 220.453125 232.644531 218.636719 232.082031 216.753906 C 231.953125 216.320312 231.609375 215.988281 231.160156 215.886719 L 224.085938 214.121094 L 224.085938 202.632812 L 231.160156 200.867188 C 231.59375 200.75 231.941406 200.417969 232.082031 199.996094 C 232.644531 198.113281 233.386719 196.296875 234.292969 194.621094 C 234.511719 194.226562 234.5 193.738281 234.269531 193.355469 L 230.519531 187.113281 L 238.644531 178.988281 L 244.886719 182.738281 C 245.273438 182.96875 245.757812 182.980469 246.15625 182.761719 C 247.832031 181.855469 249.648438 181.113281 251.527344 180.550781 C 251.960938 180.421875 252.296875 180.074219 252.398438 179.628906 L 254.164062 172.554688 L 258.628906 172.554688 L 258.628906 184.105469 C 245.820312 184.769531 235.597656 195.402344 235.597656 208.375 C 235.597656 221.347656 245.820312 231.980469 258.628906 232.644531 Z M 258.628906 244.199219 " fill-opacity="1" fill-rule="nonzero"/></g><g clip-path="url(#369a93ada2)"><path fill="#ffffff" d="M 290.613281 203.257812 C 288.234375 203.257812 286.25 204.894531 285.675781 207.097656 L 272.699219 207.097656 L 272.699219 201.980469 L 277.820312 201.980469 C 278.175781 201.980469 278.523438 201.824219 278.765625 201.554688 L 283.449219 196.425781 C 284.074219 196.695312 284.765625 196.859375 285.496094 196.859375 C 288.320312 196.859375 290.613281 194.570312 290.613281 191.742188 C 290.613281 188.917969 288.320312 186.625 285.496094 186.625 C 282.667969 186.625 280.378906 188.917969 280.378906 191.742188 C 280.378906 192.90625 280.785156 193.96875 281.4375 194.828125 L 277.253906 199.421875 L 272.699219 199.421875 L 272.699219 196.859375 C 272.699219 196.15625 272.125 195.582031 271.421875 195.582031 L 268.863281 195.582031 L 268.863281 193.023438 C 268.863281 192.320312 268.289062 191.742188 267.582031 191.742188 C 266.878906 191.742188 266.304688 192.320312 266.304688 193.023438 L 266.304688 195.582031 L 261.1875 195.582031 L 261.1875 193.023438 C 261.1875 192.320312 260.609375 191.742188 259.90625 191.742188 C 259.203125 191.742188 258.628906 192.320312 258.628906 193.023438 L 258.628906 195.582031 L 253.511719 195.582031 L 253.511719 193.023438 C 253.511719 192.320312 252.933594 191.742188 252.230469 191.742188 C 251.527344 191.742188 250.953125 192.320312 250.953125 193.023438 L 250.953125 195.582031 L 248.394531 195.582031 C 247.691406 195.582031 247.113281 196.15625 247.113281 196.859375 L 247.113281 199.421875 L 244.554688 199.421875 C 243.851562 199.421875 243.277344 199.996094 243.277344 200.699219 C 243.277344 201.402344 243.851562 201.980469 244.554688 201.980469 L 247.113281 201.980469 L 247.113281 207.097656 L 244.554688 207.097656 C 243.851562 207.097656 243.277344 207.671875 243.277344 208.375 C 243.277344 209.078125 243.851562 209.65625 244.554688 209.65625 L 247.113281 209.65625 L 247.113281 214.773438 L 244.554688 214.773438 C 243.851562 214.773438 243.277344 215.347656 243.277344 216.050781 C 243.277344 216.753906 243.851562 217.332031 244.554688 217.332031 L 247.113281 217.332031 L 247.113281 219.890625 C 247.113281 220.59375 247.691406 221.167969 248.394531 221.167969 L 250.953125 221.167969 L 250.953125 223.726562 C 250.953125 224.429688 251.527344 225.007812 252.230469 225.007812 C 252.933594 225.007812 253.511719 224.429688 253.511719 223.726562 L 253.511719 221.167969 L 258.628906 221.167969 L 258.628906 223.726562 C 258.628906 224.429688 259.203125 225.007812 259.90625 225.007812 C 260.609375 225.007812 261.1875 224.429688 261.1875 223.726562 L 261.1875 221.167969 L 266.304688 221.167969 L 266.304688 223.726562 C 266.304688 224.429688 266.878906 225.007812 267.582031 225.007812 C 268.289062 225.007812 268.863281 224.429688 268.863281 223.726562 L 268.863281 221.167969 L 271.421875 221.167969 C 272.125 221.167969 272.699219 220.59375 272.699219 219.890625 L 272.699219 217.332031 L 277.253906 217.332031 L 281.4375 221.925781 C 280.785156 222.78125 280.378906 223.84375 280.378906 225.007812 C 280.378906 227.835938 282.667969 230.125 285.496094 230.125 C 288.320312 230.125 290.613281 227.835938 290.613281 225.007812 C 290.613281 222.179688 288.320312 219.890625 285.496094 219.890625 C 284.765625 219.890625 284.074219 220.042969 283.449219 220.324219 L 278.765625 215.195312 C 278.523438 214.925781 278.175781 214.773438 277.820312 214.773438 L 272.699219 214.773438 L 272.699219 209.65625 L 285.675781 209.65625 C 286.25 211.855469 288.234375 213.492188 290.613281 213.492188 C 293.441406 213.492188 295.730469 211.203125 295.730469 208.375 C 295.730469 205.546875 293.441406 203.257812 290.613281 203.257812 Z M 285.496094 189.183594 C 286.902344 189.183594 288.054688 190.335938 288.054688 191.742188 C 288.054688 193.152344 286.902344 194.300781 285.496094 194.300781 C 284.085938 194.300781 282.9375 193.152344 282.9375 191.742188 C 282.9375 190.335938 284.085938 189.183594 285.496094 189.183594 Z M 288.054688 225.007812 C 288.054688 226.414062 286.902344 227.566406 285.496094 227.566406 C 284.085938 227.566406 282.9375 226.414062 282.9375 225.007812 C 282.9375 223.601562 284.085938 222.449219 285.496094 222.449219 C 286.902344 222.449219 288.054688 223.601562 288.054688 225.007812 Z M 270.140625 218.609375 L 249.671875 218.609375 L 249.671875 198.140625 L 270.140625 198.140625 Z M 290.613281 210.933594 C 289.203125 210.933594 288.054688 209.78125 288.054688 208.375 C 288.054688 206.96875 289.203125 205.816406 290.613281 205.816406 C 292.019531 205.816406 293.171875 206.96875 293.171875 208.375 C 293.171875 209.78125 292.019531 210.933594 290.613281 210.933594 Z M 290.613281 210.933594 " fill-opacity="1" fill-rule="nonzero"/></g></svg>