<svg xmlns="http://www.w3.org/2000/svg" xmlns:xlink="http://www.w3.org/1999/xlink" width="512" zoomAndPan="magnify" viewBox="0 0 384 383.999986" height="512" preserveAspectRatio="xMidYMid meet" version="1.0"><defs><clipPath id="e61e38cffc"><path d="M 100 87.402344 L 233 87.402344 L 233 197 L 100 197 Z M 100 87.402344 " clip-rule="nonzero"/></clipPath><clipPath id="5898e03503"><path d="M 89.722656 199 L 243.472656 199 L 243.472656 217.902344 L 89.722656 217.902344 Z M 89.722656 199 " clip-rule="nonzero"/></clipPath><clipPath id="14f345c190"><path d="M 238 115.199219 L 256 115.199219 L 256 132 L 238 132 Z M 238 115.199219 " clip-rule="nonzero"/></clipPath><clipPath id="cf986a0628"><path d="M 314 167 L 330.566406 167 L 330.566406 184 L 314 184 Z M 314 167 " clip-rule="nonzero"/></clipPath><clipPath id="57f0f4f4a8"><path d="M 314 200 L 330.566406 200 L 330.566406 217 L 314 217 Z M 314 200 " clip-rule="nonzero"/></clipPath><clipPath id="2755ae9bcb"><path d="M 238 252 L 256 252 L 256 268.949219 L 238 268.949219 Z M 238 252 " clip-rule="nonzero"/></clipPath><clipPath id="0402170906"><path d="M 179.066406 167 L 196 167 L 196 184 L 179.066406 184 Z M 179.066406 167 " clip-rule="nonzero"/></clipPath><clipPath id="d70bd40a2e"><path d="M 179.066406 200 L 196 200 L 196 217 L 179.066406 217 Z M 179.066406 200 " clip-rule="nonzero"/></clipPath></defs><g clip-path="url(#e61e38cffc)"><path fill="#ffffff" d="M 232.828125 104.417969 C 232.828125 95.035156 225.199219 87.40625 215.820312 87.40625 L 117.25 87.40625 C 107.871094 87.40625 100.242188 95.035156 100.242188 104.417969 L 100.242188 196.726562 L 232.828125 196.726562 Z M 221.492188 177.34375 C 221.492188 178.230469 220.769531 178.949219 219.886719 178.949219 L 113.1875 178.949219 C 112.304688 178.949219 111.582031 178.230469 111.582031 177.34375 L 111.582031 101.738281 C 111.582031 100.855469 112.304688 100.136719 113.1875 100.136719 L 219.886719 100.136719 C 220.769531 100.136719 221.492188 100.855469 221.492188 101.738281 Z M 221.492188 177.34375 " fill-opacity="1" fill-rule="nonzero"/></g><g clip-path="url(#5898e03503)"><path fill="#ffffff" d="M 89.746094 199.9375 L 89.746094 207.339844 C 89.746094 213.300781 94.59375 218.144531 100.550781 218.144531 L 232.519531 218.144531 C 238.476562 218.144531 243.324219 213.300781 243.324219 207.339844 L 243.324219 199.9375 Z M 89.746094 199.9375 " fill-opacity="1" fill-rule="nonzero"/></g><path fill="#ffffff" d="M 114.792969 175.738281 L 218.28125 175.738281 L 218.28125 103.34375 L 114.792969 103.34375 Z M 121.804688 159.410156 L 129.054688 159.410156 L 129.054688 145.070312 C 129.054688 144.183594 129.773438 143.464844 130.65625 143.464844 L 145.464844 143.464844 C 146.351562 143.464844 147.070312 144.183594 147.070312 145.070312 L 147.070312 159.410156 L 157.5625 159.410156 L 157.5625 114.167969 C 157.5625 113.28125 158.28125 112.5625 159.167969 112.5625 L 173.976562 112.5625 C 174.859375 112.5625 175.578125 113.28125 175.578125 114.167969 L 175.578125 159.410156 L 186.070312 159.410156 L 186.070312 130.648438 C 186.070312 129.761719 186.789062 129.042969 187.675781 129.042969 L 202.484375 129.042969 C 203.371094 129.042969 204.085938 129.761719 204.085938 130.648438 L 204.085938 159.410156 L 211.339844 159.410156 C 212.222656 159.410156 212.941406 160.125 212.941406 161.015625 C 212.941406 161.902344 212.222656 162.617188 211.339844 162.617188 L 121.804688 162.617188 C 120.917969 162.617188 120.199219 161.898438 120.199219 161.015625 C 120.199219 160.128906 120.917969 159.410156 121.804688 159.410156 Z M 121.804688 159.410156 " fill-opacity="1" fill-rule="nonzero"/><path fill="#ffffff" d="M 189.28125 132.253906 L 200.878906 132.253906 L 200.878906 159.410156 L 189.28125 159.410156 Z M 189.28125 132.253906 " fill-opacity="1" fill-rule="nonzero"/><path fill="#ffffff" d="M 160.769531 115.773438 L 172.371094 115.773438 L 172.371094 159.410156 L 160.769531 159.410156 Z M 160.769531 115.773438 " fill-opacity="1" fill-rule="nonzero"/><path fill="#ffffff" d="M 132.261719 146.675781 L 143.859375 146.675781 L 143.859375 159.410156 L 132.261719 159.410156 Z M 132.261719 146.675781 " fill-opacity="1" fill-rule="nonzero"/><path fill="#ffffff" d="M 279.785156 221.558594 L 229.933594 221.558594 C 224.804688 221.558594 220.578125 217.328125 220.578125 212.199219 L 220.578125 171.796875 C 220.578125 166.578125 224.804688 162.351562 229.933594 162.351562 L 279.785156 162.351562 C 285.003906 162.351562 289.234375 166.578125 289.234375 171.796875 L 289.234375 212.199219 C 289.234375 217.328125 285.003906 221.558594 279.785156 221.558594 Z M 231.644531 202.839844 C 231.464844 202.839844 231.285156 202.839844 231.105469 202.75 C 230.296875 202.480469 229.933594 201.582031 230.296875 200.773438 L 233.535156 192.671875 L 233.535156 192.582031 L 239.382812 178.007812 C 239.382812 178.007812 239.382812 177.917969 239.382812 177.917969 C 239.472656 177.738281 239.5625 177.558594 239.742188 177.46875 C 239.832031 177.285156 240.011719 177.195312 240.191406 177.105469 C 240.191406 177.105469 240.191406 177.105469 240.285156 177.105469 C 240.464844 177.015625 240.554688 177.015625 240.734375 177.015625 C 240.914062 177.015625 241.09375 177.015625 241.273438 177.105469 C 241.273438 177.105469 241.363281 177.105469 241.363281 177.105469 C 241.542969 177.195312 241.722656 177.285156 241.8125 177.46875 C 241.992188 177.558594 242.082031 177.738281 242.171875 177.917969 C 242.171875 177.917969 242.171875 178.007812 242.171875 178.007812 L 248.023438 192.582031 L 248.023438 192.671875 L 251.261719 200.773438 C 251.53125 201.582031 251.171875 202.480469 250.449219 202.75 C 249.640625 203.023438 248.742188 202.660156 248.472656 201.941406 L 245.59375 194.742188 L 235.964844 194.742188 L 233.085938 201.941406 C 232.816406 202.480469 232.273438 202.839844 231.644531 202.839844 Z M 265.929688 202.929688 L 257.917969 202.929688 C 257.109375 202.929688 256.480469 202.300781 256.480469 201.492188 C 256.480469 200.59375 257.109375 199.960938 257.917969 199.960938 L 264.398438 199.960938 L 264.398438 179.894531 L 257.917969 179.894531 C 257.109375 179.894531 256.480469 179.265625 256.480469 178.457031 C 256.480469 177.558594 257.109375 176.925781 257.917969 176.925781 L 273.847656 176.925781 C 274.65625 176.925781 275.375 177.558594 275.375 178.457031 C 275.375 179.265625 274.65625 179.894531 273.847656 179.894531 L 267.367188 179.894531 L 267.367188 199.960938 L 273.847656 199.960938 C 274.65625 199.960938 275.375 200.59375 275.375 201.492188 C 275.375 202.300781 274.65625 202.929688 273.847656 202.929688 Z M 244.421875 191.683594 L 240.734375 182.597656 L 237.132812 191.683594 Z M 244.421875 191.683594 " fill-opacity="1" fill-rule="evenodd"/><path fill="#ffffff" d="M 246.941406 165.410156 C 246.132812 165.410156 245.414062 164.691406 245.414062 163.878906 L 245.414062 129.957031 C 245.414062 129.148438 246.132812 128.425781 246.941406 128.425781 C 247.75 128.425781 248.382812 129.148438 248.382812 129.957031 L 248.382812 163.878906 C 248.382812 164.691406 247.75 165.410156 246.941406 165.410156 Z M 246.941406 165.410156 " fill-opacity="1" fill-rule="evenodd"/><g clip-path="url(#14f345c190)"><path fill="#ffffff" d="M 246.941406 131.488281 C 242.441406 131.488281 238.753906 127.796875 238.753906 123.296875 C 238.753906 118.890625 242.441406 115.199219 246.941406 115.199219 C 251.441406 115.199219 255.039062 118.890625 255.039062 123.296875 C 255.039062 127.796875 251.441406 131.488281 246.941406 131.488281 Z M 246.941406 131.488281 " fill-opacity="1" fill-rule="evenodd"/></g><path fill="#ffffff" d="M 262.867188 165.410156 C 262.058594 165.410156 261.339844 164.691406 261.339844 163.878906 L 261.339844 149.84375 C 261.339844 149.03125 262.058594 148.3125 262.867188 148.3125 C 263.679688 148.3125 264.398438 149.03125 264.398438 149.84375 L 264.398438 163.878906 C 264.398438 164.691406 263.679688 165.410156 262.867188 165.410156 Z M 262.867188 165.410156 " fill-opacity="1" fill-rule="evenodd"/><path fill="#ffffff" d="M 262.867188 151.371094 C 258.371094 151.371094 254.769531 147.683594 254.769531 143.183594 C 254.769531 138.773438 258.371094 135.085938 262.867188 135.085938 C 267.367188 135.085938 270.964844 138.773438 270.964844 143.183594 C 270.964844 147.683594 267.367188 151.371094 262.867188 151.371094 Z M 262.867188 151.371094 " fill-opacity="1" fill-rule="evenodd"/><path fill="#ffffff" d="M 278.796875 165.410156 C 277.984375 165.410156 277.265625 164.691406 277.265625 163.878906 L 277.265625 141.925781 C 277.265625 137.515625 280.863281 133.917969 285.273438 133.917969 L 294.8125 133.917969 C 295.621094 133.917969 296.339844 134.636719 296.339844 135.445312 C 296.339844 136.253906 295.621094 136.976562 294.8125 136.976562 L 285.273438 136.976562 C 282.574219 136.976562 280.324219 139.136719 280.324219 141.925781 L 280.324219 163.878906 C 280.324219 164.691406 279.605469 165.410156 278.796875 165.410156 Z M 278.796875 165.410156 " fill-opacity="1" fill-rule="evenodd"/><path fill="#ffffff" d="M 301.46875 143.542969 C 296.972656 143.542969 293.28125 139.945312 293.28125 135.445312 C 293.28125 130.945312 296.972656 127.347656 301.46875 127.347656 C 305.96875 127.347656 309.570312 130.945312 309.570312 135.445312 C 309.570312 139.945312 305.96875 143.542969 301.46875 143.542969 Z M 301.46875 143.542969 " fill-opacity="1" fill-rule="evenodd"/><path fill="#ffffff" d="M 231.015625 165.410156 C 230.117188 165.410156 229.484375 164.691406 229.484375 163.878906 L 229.484375 141.925781 C 229.484375 139.136719 227.234375 136.976562 224.535156 136.976562 L 215 136.976562 C 214.097656 136.976562 213.46875 136.253906 213.46875 135.445312 C 213.46875 134.636719 214.097656 133.917969 215 133.917969 L 224.535156 133.917969 C 228.945312 133.917969 232.453125 137.515625 232.453125 141.925781 L 232.453125 163.878906 C 232.453125 164.691406 231.824219 165.410156 231.015625 165.410156 Z M 231.015625 165.410156 " fill-opacity="1" fill-rule="evenodd"/><path fill="#ffffff" d="M 208.339844 143.542969 C 203.839844 143.542969 200.242188 139.945312 200.242188 135.445312 C 200.242188 130.945312 203.839844 127.347656 208.339844 127.347656 C 212.839844 127.347656 216.4375 130.945312 216.4375 135.445312 C 216.4375 139.945312 212.839844 143.542969 208.339844 143.542969 Z M 208.339844 143.542969 " fill-opacity="1" fill-rule="evenodd"/><path fill="#ffffff" d="M 315.957031 177.195312 L 287.703125 177.195312 C 286.894531 177.195312 286.171875 176.476562 286.171875 175.667969 C 286.171875 174.859375 286.894531 174.226562 287.703125 174.226562 L 315.957031 174.226562 C 316.765625 174.226562 317.398438 174.859375 317.398438 175.667969 C 317.398438 176.476562 316.765625 177.195312 315.957031 177.195312 Z M 315.957031 177.195312 " fill-opacity="1" fill-rule="evenodd"/><g clip-path="url(#cf986a0628)"><path fill="#ffffff" d="M 322.527344 183.855469 C 318.117188 183.855469 314.425781 180.167969 314.425781 175.667969 C 314.425781 171.167969 318.117188 167.570312 322.527344 167.570312 C 327.023438 167.570312 330.714844 171.167969 330.714844 175.667969 C 330.714844 180.167969 327.023438 183.855469 322.527344 183.855469 Z M 322.527344 183.855469 " fill-opacity="1" fill-rule="evenodd"/></g><path fill="#ffffff" d="M 296.160156 193.484375 L 287.703125 193.484375 C 286.894531 193.484375 286.171875 192.855469 286.171875 191.953125 C 286.171875 191.144531 286.894531 190.515625 287.703125 190.515625 L 296.160156 190.515625 C 296.972656 190.515625 297.601562 191.144531 297.601562 191.953125 C 297.601562 192.855469 296.972656 193.484375 296.160156 193.484375 Z M 296.160156 193.484375 " fill-opacity="1" fill-rule="evenodd"/><path fill="#ffffff" d="M 302.730469 200.140625 C 298.320312 200.140625 294.632812 196.453125 294.632812 191.953125 C 294.632812 187.542969 298.320312 183.855469 302.730469 183.855469 C 307.230469 183.855469 310.917969 187.542969 310.917969 191.953125 C 310.917969 196.453125 307.230469 200.140625 302.730469 200.140625 Z M 302.730469 200.140625 " fill-opacity="1" fill-rule="evenodd"/><path fill="#ffffff" d="M 315.957031 209.679688 L 287.703125 209.679688 C 286.894531 209.679688 286.171875 209.050781 286.171875 208.152344 C 286.171875 207.339844 286.894531 206.710938 287.703125 206.710938 L 315.957031 206.710938 C 316.765625 206.710938 317.398438 207.339844 317.398438 208.152344 C 317.398438 209.050781 316.765625 209.679688 315.957031 209.679688 Z M 315.957031 209.679688 " fill-opacity="1" fill-rule="evenodd"/><g clip-path="url(#57f0f4f4a8)"><path fill="#ffffff" d="M 322.527344 216.339844 C 318.117188 216.339844 314.425781 212.648438 314.425781 208.152344 C 314.425781 203.742188 318.117188 200.050781 322.527344 200.050781 C 327.023438 200.050781 330.714844 203.742188 330.714844 208.152344 C 330.714844 212.648438 327.023438 216.339844 322.527344 216.339844 Z M 322.527344 216.339844 " fill-opacity="1" fill-rule="evenodd"/></g><path fill="#ffffff" d="M 246.941406 255.480469 C 246.132812 255.480469 245.414062 254.851562 245.414062 254.039062 L 245.414062 220.117188 C 245.414062 219.21875 246.132812 218.589844 246.941406 218.589844 C 247.75 218.589844 248.382812 219.21875 248.382812 220.117188 L 248.382812 254.039062 C 248.382812 254.851562 247.75 255.480469 246.941406 255.480469 Z M 246.941406 255.480469 " fill-opacity="1" fill-rule="evenodd"/><g clip-path="url(#2755ae9bcb)"><path fill="#ffffff" d="M 246.941406 268.796875 C 242.441406 268.796875 238.753906 265.109375 238.753906 260.609375 C 238.753906 256.109375 242.441406 252.511719 246.941406 252.511719 C 251.441406 252.511719 255.039062 256.109375 255.039062 260.609375 C 255.039062 265.109375 251.441406 268.796875 246.941406 268.796875 Z M 246.941406 268.796875 " fill-opacity="1" fill-rule="evenodd"/></g><path fill="#ffffff" d="M 262.867188 235.59375 C 262.058594 235.59375 261.339844 234.964844 261.339844 234.15625 L 261.339844 220.117188 C 261.339844 219.21875 262.058594 218.589844 262.867188 218.589844 C 263.679688 218.589844 264.398438 219.21875 264.398438 220.117188 L 264.398438 234.15625 C 264.398438 234.964844 263.679688 235.59375 262.867188 235.59375 Z M 262.867188 235.59375 " fill-opacity="1" fill-rule="evenodd"/><path fill="#ffffff" d="M 262.867188 248.910156 C 258.371094 248.910156 254.769531 245.222656 254.769531 240.722656 C 254.769531 236.222656 258.371094 232.625 262.867188 232.625 C 267.367188 232.625 270.964844 236.222656 270.964844 240.722656 C 270.964844 245.222656 267.367188 248.910156 262.867188 248.910156 Z M 262.867188 248.910156 " fill-opacity="1" fill-rule="evenodd"/><path fill="#ffffff" d="M 294.8125 249.992188 L 285.273438 249.992188 C 280.863281 249.992188 277.265625 246.480469 277.265625 242.074219 L 277.265625 220.117188 C 277.265625 219.21875 277.984375 218.589844 278.796875 218.589844 C 279.605469 218.589844 280.324219 219.21875 280.324219 220.117188 L 280.324219 242.074219 C 280.324219 244.773438 282.574219 247.023438 285.273438 247.023438 L 294.8125 247.023438 C 295.621094 247.023438 296.339844 247.652344 296.339844 248.550781 C 296.339844 249.363281 295.621094 249.992188 294.8125 249.992188 Z M 294.8125 249.992188 " fill-opacity="1" fill-rule="evenodd"/><path fill="#ffffff" d="M 301.46875 256.648438 C 296.972656 256.648438 293.28125 252.960938 293.28125 248.550781 C 293.28125 244.054688 296.972656 240.363281 301.46875 240.363281 C 305.96875 240.363281 309.570312 244.054688 309.570312 248.550781 C 309.570312 252.960938 305.96875 256.648438 301.46875 256.648438 Z M 301.46875 256.648438 " fill-opacity="1" fill-rule="evenodd"/><path fill="#ffffff" d="M 224.535156 249.992188 L 215 249.992188 C 214.097656 249.992188 213.46875 249.363281 213.46875 248.550781 C 213.46875 247.652344 214.097656 247.023438 215 247.023438 L 224.535156 247.023438 C 227.234375 247.023438 229.484375 244.773438 229.484375 242.074219 L 229.484375 220.117188 C 229.484375 219.21875 230.117188 218.589844 231.015625 218.589844 C 231.824219 218.589844 232.453125 219.21875 232.453125 220.117188 L 232.453125 242.074219 C 232.453125 246.480469 228.945312 249.992188 224.535156 249.992188 Z M 224.535156 249.992188 " fill-opacity="1" fill-rule="evenodd"/><path fill="#ffffff" d="M 208.339844 256.648438 C 203.839844 256.648438 200.242188 252.960938 200.242188 248.550781 C 200.242188 244.054688 203.839844 240.363281 208.339844 240.363281 C 212.839844 240.363281 216.4375 244.054688 216.4375 248.550781 C 216.4375 252.960938 212.839844 256.648438 208.339844 256.648438 Z M 208.339844 256.648438 " fill-opacity="1" fill-rule="evenodd"/><path fill="#ffffff" d="M 222.105469 177.195312 L 193.851562 177.195312 C 193.042969 177.195312 192.324219 176.566406 192.324219 175.757812 C 192.324219 174.859375 193.042969 174.226562 193.851562 174.226562 L 222.105469 174.226562 C 222.917969 174.226562 223.546875 174.859375 223.546875 175.757812 C 223.546875 176.566406 222.917969 177.195312 222.105469 177.195312 Z M 222.105469 177.195312 " fill-opacity="1" fill-rule="evenodd"/><g clip-path="url(#0402170906)"><path fill="#ffffff" d="M 187.195312 183.855469 C 182.785156 183.855469 179.097656 180.257812 179.097656 175.757812 C 179.097656 171.257812 182.785156 167.570312 187.195312 167.570312 C 191.695312 167.570312 195.382812 171.257812 195.382812 175.757812 C 195.382812 180.257812 191.695312 183.855469 187.195312 183.855469 Z M 187.195312 183.855469 " fill-opacity="1" fill-rule="evenodd"/></g><path fill="#ffffff" d="M 222.105469 193.484375 L 213.648438 193.484375 C 212.839844 193.484375 212.121094 192.855469 212.121094 192.042969 C 212.121094 191.234375 212.839844 190.515625 213.648438 190.515625 L 222.105469 190.515625 C 222.917969 190.515625 223.546875 191.234375 223.546875 192.042969 C 223.546875 192.855469 222.917969 193.484375 222.105469 193.484375 Z M 222.105469 193.484375 " fill-opacity="1" fill-rule="evenodd"/><path fill="#ffffff" d="M 206.992188 200.140625 C 202.492188 200.140625 198.890625 196.542969 198.890625 192.042969 C 198.890625 187.542969 202.492188 183.855469 206.992188 183.855469 C 211.488281 183.855469 215.179688 187.542969 215.179688 192.042969 C 215.179688 196.542969 211.488281 200.140625 206.992188 200.140625 Z M 206.992188 200.140625 " fill-opacity="1" fill-rule="evenodd"/><path fill="#ffffff" d="M 222.105469 209.769531 L 193.851562 209.769531 C 193.042969 209.769531 192.324219 209.050781 192.324219 208.242188 C 192.324219 207.429688 193.042969 206.710938 193.851562 206.710938 L 222.105469 206.710938 C 222.917969 206.710938 223.546875 207.429688 223.546875 208.242188 C 223.546875 209.050781 222.917969 209.769531 222.105469 209.769531 Z M 222.105469 209.769531 " fill-opacity="1" fill-rule="evenodd"/><g clip-path="url(#d70bd40a2e)"><path fill="#ffffff" d="M 187.195312 216.339844 C 182.785156 216.339844 179.097656 212.738281 179.097656 208.242188 C 179.097656 203.742188 182.785156 200.140625 187.195312 200.140625 C 191.695312 200.140625 195.382812 203.742188 195.382812 208.242188 C 195.382812 212.738281 191.695312 216.339844 187.195312 216.339844 Z M 187.195312 216.339844 " fill-opacity="1" fill-rule="evenodd"/></g></svg>