<svg xmlns="http://www.w3.org/2000/svg" xmlns:xlink="http://www.w3.org/1999/xlink" width="512" zoomAndPan="magnify" viewBox="0 0 384 383.999986" height="512" preserveAspectRatio="xMidYMid meet" version="1.0"><defs><clipPath id="bcf071cdc5"><path d="M 122 115.199219 L 262 115.199219 L 262 268.949219 L 122 268.949219 Z M 122 115.199219 " clip-rule="nonzero"/></clipPath></defs><g clip-path="url(#bcf071cdc5)"><path fill="#ffffff" d="M 214.042969 240.667969 L 236.5625 268.699219 C 236.625 268.777344 236.710938 268.816406 236.8125 268.816406 L 261.667969 268.816406 C 261.953125 268.816406 262.097656 268.472656 261.894531 268.269531 L 224.191406 230.566406 C 224.066406 230.441406 223.863281 230.441406 223.738281 230.566406 L 214.066406 240.242188 C 213.949219 240.355469 213.941406 240.539062 214.042969 240.667969 Z M 139.003906 197.5625 C 135.109375 193.667969 128.429688 196.441406 128.429688 201.941406 C 128.429688 207.4375 135.109375 210.210938 139.003906 206.320312 C 141.421875 203.902344 141.421875 199.980469 139.003906 197.5625 Z M 253.789062 197.5625 C 249.894531 193.667969 243.214844 196.441406 243.214844 201.941406 C 243.214844 207.4375 249.894531 210.210938 253.789062 206.320312 C 256.207031 203.902344 256.207031 199.980469 253.789062 197.5625 Z M 191.765625 221.207031 C 191.894531 221.046875 192.136719 221.046875 192.265625 221.207031 L 230.101562 268.296875 C 230.269531 268.507812 230.121094 268.816406 229.851562 268.816406 C 204.628906 268.816406 179.40625 268.816406 154.183594 268.816406 C 153.914062 268.816406 153.765625 268.507812 153.933594 268.296875 Z M 147.46875 268.699219 L 169.992188 240.667969 C 170.09375 240.539062 170.082031 240.355469 169.96875 240.242188 L 160.292969 230.566406 C 160.167969 230.441406 159.964844 230.441406 159.839844 230.566406 L 122.136719 268.269531 C 121.9375 268.472656 122.078125 268.816406 122.363281 268.816406 L 147.21875 268.816406 C 147.320312 268.816406 147.40625 268.777344 147.46875 268.699219 Z M 234.457031 214.101562 L 227.546875 208.492188 C 227.34375 208.324219 227.417969 207.996094 227.671875 207.933594 C 230.59375 207.210938 233.019531 204.605469 233.316406 201.765625 C 233.34375 201.511719 233.632812 201.390625 233.832031 201.546875 L 250.851562 214.878906 C 254.636719 217.84375 256.722656 221.929688 256.722656 226.738281 L 256.722656 255.539062 C 256.722656 255.824219 256.378906 255.96875 256.179688 255.765625 L 238.953125 238.542969 C 238.890625 238.480469 238.859375 238.402344 238.859375 238.316406 L 238.859375 222.996094 C 238.859375 219.390625 237.253906 216.375 234.457031 214.101562 Z M 145.171875 238.316406 C 145.171875 238.402344 145.140625 238.480469 145.078125 238.542969 L 127.855469 255.765625 C 127.652344 255.96875 127.308594 255.824219 127.308594 255.539062 L 127.308594 226.738281 C 127.308594 221.929688 129.199219 217.570312 133.183594 214.878906 C 136.324219 212.753906 157.625 197.5 162.492188 196.628906 C 162.644531 196.601562 162.753906 196.472656 162.753906 196.316406 L 162.753906 172.226562 C 162.753906 171.78125 159.941406 168.597656 159.941406 163.097656 L 159.941406 148.824219 C 159.941406 146.886719 161.015625 145.1875 162.59375 144.289062 C 162.695312 144.230469 162.757812 144.128906 162.757812 144.007812 L 162.753906 117.617188 C 162.753906 116.292969 163.832031 115.21875 165.15625 115.21875 L 194.550781 115.21875 C 196.683594 115.21875 197.761719 117.8125 196.230469 119.328125 L 191.179688 124.382812 C 191.054688 124.507812 191.054688 124.710938 191.179688 124.832031 L 196.246094 129.902344 C 197.761719 131.414062 196.667969 133.996094 194.550781 133.996094 L 167.875 133.996094 C 167.699219 133.996094 167.554688 134.140625 167.554688 134.316406 L 167.554688 144.007812 C 167.554688 144.128906 167.617188 144.230469 167.71875 144.289062 C 169.296875 145.1875 170.371094 146.886719 170.371094 148.824219 L 170.371094 159.730469 C 170.371094 170.03125 180.9375 174.28125 188.980469 175.039062 C 196.359375 175.730469 199.636719 176.863281 202.691406 178.351562 C 206.261719 180.089844 217.066406 189.363281 226.070312 196.007812 C 226.265625 196.152344 226.460938 196.296875 226.65625 196.4375 C 228.882812 198.03125 229.714844 200.136719 227.992188 202.492188 C 226.296875 204.804688 223.054688 205.261719 220.703125 203.621094 L 204.171875 192.085938 C 203.957031 191.9375 203.667969 192.089844 203.667969 192.347656 L 203.667969 226.84375 C 203.667969 227.144531 203.289062 227.28125 203.097656 227.042969 L 193.910156 215.609375 C 192.953125 214.417969 191.136719 214.347656 190.152344 215.574219 L 180.9375 227.042969 C 180.746094 227.28125 180.367188 227.144531 180.367188 226.84375 L 180.367188 195.578125 C 180.367188 190.207031 178.09375 185.582031 173.84375 182.300781 L 168.074219 177.84375 C 167.863281 177.679688 167.554688 177.828125 167.554688 178.09375 L 167.554688 231.261719 C 167.554688 231.546875 167.210938 231.691406 167.007812 231.488281 L 162.847656 227.328125 C 162.785156 227.265625 162.753906 227.191406 162.753906 227.101562 L 162.753906 204.707031 C 162.753906 204.441406 162.453125 204.292969 162.242188 204.453125 L 149.578125 214.101562 C 146.710938 216.289062 145.171875 219.390625 145.171875 223 Z M 192.015625 152.375 C 186.832031 152.375 182.625 156.582031 182.625 161.765625 C 182.625 166.949219 186.832031 171.15625 192.015625 171.15625 C 197.203125 171.15625 201.40625 166.949219 201.40625 161.765625 C 201.40625 156.578125 197.203125 152.375 192.015625 152.375 Z M 192.015625 152.375 " fill-opacity="1" fill-rule="evenodd"/></g></svg>