<svg xmlns="http://www.w3.org/2000/svg" xmlns:xlink="http://www.w3.org/1999/xlink" width="512" zoomAndPan="magnify" viewBox="0 0 384 383.999986" height="512" preserveAspectRatio="xMidYMid meet" version="1.0"><defs><clipPath id="c073c9943d"><path d="M 125 84.492188 L 278 84.492188 L 278 176 L 125 176 Z M 125 84.492188 " clip-rule="nonzero"/></clipPath><clipPath id="59796057f0"><path d="M 107.246094 216 L 166 216 L 166 274 L 107.246094 274 Z M 107.246094 216 " clip-rule="nonzero"/></clipPath></defs><g clip-path="url(#c073c9943d)"><path fill="#ffffff" d="M 252.878906 120.941406 C 250.585938 108.933594 239.546875 104.234375 229.90625 103.792969 C 224.898438 92.222656 214.207031 84.8125 202.34375 84.8125 C 189.671875 84.8125 180.425781 94.460938 175.851562 103.527344 C 170.988281 101.40625 162.164062 99.910156 154.558594 103.722656 C 149.429688 106.292969 143.253906 112.214844 142.308594 125.847656 C 129.558594 128.917969 124.636719 141.542969 125.511719 152.40625 C 126.652344 166.535156 138.460938 175.308594 156.324219 175.308594 C 156.660156 175.308594 244.765625 175.542969 244.457031 175.542969 C 260.164062 175.542969 277.117188 165.070312 277.117188 148.148438 C 277.117188 134.871094 267.230469 123.875 252.878906 120.941406 Z M 244.460938 171.226562 L 156.328125 170.992188 C 140.683594 170.992188 130.773438 163.914062 129.816406 152.058594 C 129.03125 142.3125 133.335938 131.640625 144.730469 129.761719 C 145.746094 129.59375 146.5 128.734375 146.539062 127.707031 C 146.898438 117.480469 150.25 110.710938 156.492188 107.582031 C 162.371094 104.640625 171.378906 105.421875 175.621094 108.273438 C 175.765625 108.378906 175.921875 108.46875 176.085938 108.539062 C 177.105469 108.96875 178.285156 108.566406 178.820312 107.59375 C 178.960938 107.335938 179.046875 107.0625 179.078125 106.785156 C 182.820312 98.507812 191.03125 89.132812 202.34375 89.132812 C 214.894531 89.132812 223.019531 98.261719 226.242188 106.21875 C 226.386719 107.265625 227.289062 108.074219 228.378906 108.074219 C 231.492188 108.074219 247.125 108.796875 248.835938 123.046875 C 248.949219 124.003906 249.6875 124.769531 250.636719 124.921875 C 263.6875 127.011719 272.800781 136.5625 272.800781 148.148438 C 272.800781 162.402344 258.089844 171.222656 244.460938 171.226562 Z M 244.460938 171.226562 " fill-opacity="1" fill-rule="nonzero"/></g><path fill="#ffffff" d="M 203.042969 105.863281 C 203.039062 105.863281 203.03125 105.859375 203.023438 105.859375 C 203.003906 105.859375 203.011719 105.859375 203.011719 105.859375 C 186.554688 105.859375 173.167969 119.25 173.167969 135.707031 C 173.167969 152.164062 186.554688 165.550781 203.011719 165.550781 C 203.015625 165.550781 203.015625 165.550781 203.019531 165.550781 C 203.035156 165.550781 203.042969 165.550781 203.042969 165.550781 C 219.484375 165.53125 232.855469 152.152344 232.855469 135.707031 C 232.855469 119.261719 219.484375 105.882812 203.042969 105.863281 Z M 225.710938 124.082031 C 223.441406 124.761719 221.171875 125.277344 218.921875 125.710938 C 217.910156 120.515625 216.140625 116.003906 213.8125 112.609375 C 218.933594 115.015625 223.128906 119.0625 225.710938 124.082031 Z M 226.847656 144.769531 C 224.335938 144.023438 221.839844 143.449219 219.371094 142.980469 C 219.953125 138.710938 220.046875 134.496094 219.570312 129.980469 C 221.109375 129.6875 225.945312 128.683594 227.359375 128.042969 C 228.121094 130.464844 228.992188 139.148438 226.847656 144.769531 Z M 178.566406 128.386719 C 179.832031 128.734375 182.617188 129.4375 186.472656 130.09375 C 186.035156 134.304688 186.0625 138.421875 186.667969 142.890625 C 183.15625 143.480469 180.519531 144.109375 179.078125 144.492188 C 177.113281 139.160156 176.996094 133.625 178.566406 128.386719 Z M 190.746094 130.722656 C 193.753906 131.101562 197.164062 131.398438 200.867188 131.488281 L 200.867188 141.523438 C 197.242188 141.613281 193.90625 141.902344 190.945312 142.269531 C 190.429688 138.457031 190.34375 134.679688 190.746094 130.722656 Z M 205.183594 110.601562 C 209.453125 112.1875 213.046875 118.34375 214.652344 126.40625 C 211.398438 126.839844 208.21875 127.074219 205.183594 127.132812 Z M 200.867188 110.601562 L 200.867188 127.125 C 197.40625 127.03125 194.226562 126.753906 191.398438 126.402344 C 193.003906 118.34375 196.597656 112.1875 200.867188 110.601562 Z M 200.867188 145.878906 L 200.867188 160.8125 C 196.875 159.328125 193.484375 153.851562 191.742188 146.5625 C 194.488281 146.230469 197.542969 145.96875 200.867188 145.878906 Z M 205.183594 160.8125 L 205.183594 145.871094 C 208.109375 145.929688 211.175781 146.152344 214.308594 146.554688 C 212.570312 153.851562 209.175781 159.328125 205.183594 160.8125 Z M 205.183594 141.515625 L 205.183594 131.460938 C 208.425781 131.398438 211.804688 131.179688 215.300781 130.703125 C 215.71875 134.761719 215.609375 138.566406 215.101562 142.292969 C 211.6875 141.835938 208.351562 141.578125 205.183594 141.515625 Z M 192.25 112.589844 C 189.90625 116.003906 188.125 120.550781 187.113281 125.78125 C 183.914062 125.242188 181.488281 124.679688 180.1875 124.34375 C 182.761719 119.191406 187.023438 115.035156 192.25 112.589844 Z M 180.945312 148.480469 C 182.382812 148.128906 184.585938 147.640625 187.425781 147.171875 C 188.476562 151.757812 190.136719 155.746094 192.25 158.824219 C 187.507812 156.605469 183.5625 152.984375 180.945312 148.480469 Z M 213.8125 158.804688 C 215.90625 155.746094 217.5625 151.789062 218.609375 147.238281 C 220.703125 147.632812 222.8125 148.121094 224.929688 148.722656 C 222.320312 153.101562 218.449219 156.625 213.8125 158.804688 Z M 213.8125 158.804688 " fill-opacity="1" fill-rule="nonzero"/><g clip-path="url(#59796057f0)"><path fill="#ffffff" d="M 120.390625 220.882812 L 115.882812 224.660156 C 114.335938 225.96875 114.179688 228.253906 115.445312 229.75 L 119.046875 234.023438 C 118.835938 234.355469 118.636719 234.703125 118.4375 235.070312 L 112.957031 234.101562 C 111.023438 233.753906 109.125 235.03125 108.769531 237.019531 L 107.738281 242.8125 C 107.382812 244.785156 108.695312 246.660156 110.664062 247.007812 L 116.167969 247.976562 C 116.226562 248.367188 116.292969 248.757812 116.371094 249.148438 L 111.535156 251.949219 C 109.839844 252.925781 109.199219 255.121094 110.210938 256.878906 L 113.144531 261.964844 C 114.125 263.679688 116.320312 264.300781 118.078125 263.296875 L 122.9375 260.492188 C 123.226562 260.757812 123.527344 261.007812 123.839844 261.257812 L 121.925781 266.492188 C 121.242188 268.363281 122.191406 270.433594 124.078125 271.125 C 129.65625 273.089844 129.796875 273.363281 130.859375 273.363281 C 132.292969 273.363281 133.703125 272.484375 134.246094 270.988281 L 136.164062 265.738281 C 136.546875 265.746094 136.945312 265.746094 137.335938 265.738281 L 139.25 270.980469 C 139.925781 272.84375 141.988281 273.832031 143.882812 273.140625 L 149.390625 271.125 C 151.273438 270.441406 152.222656 268.359375 151.542969 266.496094 L 149.625 261.261719 C 149.949219 261.007812 150.257812 260.753906 150.554688 260.492188 L 155.386719 263.289062 C 157.101562 264.289062 159.316406 263.703125 160.320312 261.980469 L 163.277344 256.886719 C 164.277344 255.164062 163.695312 252.953125 161.957031 251.949219 L 157.089844 249.144531 C 157.171875 248.757812 157.238281 248.367188 157.292969 247.976562 L 162.828125 247.007812 C 164.78125 246.667969 166.113281 244.804688 165.761719 242.820312 L 164.730469 237.019531 C 164.378906 235.066406 162.476562 233.765625 160.550781 234.097656 L 155.042969 235.070312 C 154.851562 234.714844 154.652344 234.367188 154.441406 234.03125 L 158.027344 229.746094 C 159.300781 228.226562 159.105469 225.949219 157.589844 224.664062 L 153.109375 220.890625 C 151.632812 219.640625 149.347656 219.757812 148.019531 221.324219 L 144.40625 225.617188 C 144.050781 225.472656 143.683594 225.34375 143.304688 225.222656 L 143.304688 219.621094 C 143.304688 217.632812 141.6875 216.011719 139.695312 216.011719 L 133.800781 216.011719 C 131.8125 216.011719 130.191406 217.632812 130.191406 219.621094 L 130.191406 225.203125 C 129.816406 225.328125 129.4375 225.464844 129.0625 225.613281 L 125.476562 221.335938 C 124.230469 219.835938 121.953125 219.570312 120.390625 220.882812 Z M 129.449219 230.183594 C 130.574219 229.605469 131.695312 229.199219 132.78125 228.980469 C 133.785156 228.773438 134.507812 227.890625 134.507812 226.863281 L 134.507812 220.328125 L 138.988281 220.328125 L 138.988281 226.863281 C 138.988281 227.871094 139.683594 228.742188 140.664062 228.964844 C 141.898438 229.253906 143.023438 229.65625 143.996094 230.171875 C 144.894531 230.644531 146 230.425781 146.65625 229.65625 L 150.867188 224.648438 L 154.265625 227.507812 L 150.074219 232.519531 C 149.425781 233.296875 149.402344 234.421875 150.019531 235.226562 C 150.730469 236.140625 151.347656 237.207031 151.804688 238.308594 C 152.195312 239.242188 153.1875 239.785156 154.171875 239.605469 L 160.601562 238.472656 L 161.386719 242.875 L 154.933594 244.011719 C 153.941406 244.183594 153.199219 245.023438 153.148438 246.027344 C 153.089844 247.210938 152.882812 248.410156 152.535156 249.585938 C 152.25 250.542969 152.65625 251.574219 153.523438 252.070312 L 159.183594 255.332031 L 156.9375 259.199219 L 151.304688 255.9375 C 150.441406 255.4375 149.328125 255.59375 148.644531 256.335938 C 147.875 257.160156 146.957031 257.925781 145.835938 258.675781 C 145.007812 259.230469 144.667969 260.277344 145.007812 261.210938 L 147.242188 267.3125 L 143.066406 268.839844 L 140.824219 262.707031 C 140.472656 261.734375 139.484375 261.132812 138.457031 261.316406 C 137.347656 261.492188 136.144531 261.492188 135.042969 261.316406 C 134.007812 261.128906 133.023438 261.734375 132.671875 262.707031 L 130.433594 268.84375 L 126.222656 267.3125 L 128.457031 261.210938 C 128.800781 260.277344 128.457031 259.226562 127.628906 258.671875 C 126.566406 257.964844 125.660156 257.199219 124.859375 256.335938 C 124.171875 255.597656 123.066406 255.433594 122.195312 255.9375 L 116.535156 259.203125 L 114.304688 255.335938 L 119.941406 252.066406 C 120.804688 251.566406 121.210938 250.539062 120.929688 249.585938 C 120.582031 248.417969 120.375 247.222656 120.316406 246.027344 C 120.265625 245.023438 119.527344 244.183594 118.535156 244.011719 L 112.113281 242.878906 L 112.898438 238.476562 L 119.289062 239.605469 C 120.277344 239.78125 121.238281 239.261719 121.640625 238.355469 C 122.210938 237.066406 122.785156 236.082031 123.449219 235.257812 C 124.101562 234.457031 124.085938 233.304688 123.417969 232.511719 L 119.207031 227.507812 L 122.621094 224.648438 L 126.808594 229.648438 C 127.457031 230.425781 128.550781 230.640625 129.449219 230.183594 Z M 129.449219 230.183594 " fill-opacity="1" fill-rule="nonzero"/></g><path fill="#ffffff" d="M 145.289062 251.554688 C 151.183594 243.988281 144.976562 232.929688 135.421875 234.148438 C 129.503906 234.871094 125.265625 240.257812 126.003906 246.21875 C 127.183594 255.773438 139.390625 259.113281 145.289062 251.554688 Z M 135.953125 238.429688 C 141.699219 237.710938 145.433594 244.347656 141.882812 248.898438 C 138.351562 253.421875 131.003906 251.476562 130.285156 245.691406 C 129.847656 242.132812 132.367188 238.875 135.953125 238.429688 Z M 135.953125 238.429688 " fill-opacity="1" fill-rule="nonzero"/><path fill="#ffffff" d="M 202.253906 181.023438 C 201.058594 181.023438 200.09375 181.988281 200.09375 183.179688 L 200.054688 233.394531 C 200.050781 236.996094 202.972656 239.890625 206.546875 239.890625 C 210.566406 239.878906 215.558594 239.925781 216.304688 239.851562 C 219.636719 245.546875 228.253906 243.121094 228.253906 236.636719 C 228.253906 233.09375 225.375 230.214844 221.835938 230.214844 C 218.65625 230.214844 216.027344 232.539062 215.519531 235.574219 L 206.546875 235.574219 C 205.367188 235.574219 204.375 234.621094 204.375 233.402344 L 204.410156 183.1875 C 204.410156 181.992188 203.445312 181.023438 202.253906 181.023438 Z M 221.835938 234.53125 C 222.992188 234.53125 223.9375 235.476562 223.9375 236.636719 C 223.9375 237.796875 222.992188 238.738281 221.835938 238.738281 C 220.671875 238.738281 219.730469 237.796875 219.730469 236.636719 C 219.730469 235.476562 220.671875 234.53125 221.835938 234.53125 Z M 221.835938 234.53125 " fill-opacity="1" fill-rule="nonzero"/><path fill="#ffffff" d="M 188.277344 218.832031 L 179.308594 218.832031 C 178.800781 215.796875 176.171875 213.472656 172.992188 213.472656 C 169.453125 213.472656 166.574219 216.355469 166.574219 219.894531 C 166.574219 226.378906 175.191406 228.816406 178.523438 223.109375 C 179.230469 223.175781 185.042969 223.136719 188.277344 223.148438 C 191.859375 223.148438 194.773438 220.238281 194.773438 216.652344 L 194.730469 183.179688 C 194.730469 181.988281 193.765625 181.023438 192.574219 181.023438 L 192.570312 181.023438 C 191.378906 181.023438 190.414062 181.996094 190.414062 183.1875 L 190.453125 216.65625 C 190.453125 217.855469 189.476562 218.832031 188.277344 218.832031 Z M 172.992188 222 C 171.835938 222 170.890625 221.054688 170.890625 219.894531 C 170.890625 218.734375 171.835938 217.792969 172.992188 217.792969 C 174.15625 217.792969 175.097656 218.734375 175.097656 219.894531 C 175.097656 221.054688 174.15625 222 172.992188 222 Z M 172.992188 222 " fill-opacity="1" fill-rule="nonzero"/><path fill="#ffffff" d="M 221.046875 180.960938 C 219.855469 180.960938 218.886719 181.925781 218.886719 183.117188 L 218.886719 188.453125 C 218.886719 191.28125 221.183594 193.605469 224.011719 193.636719 L 255.210938 193.992188 C 255.675781 193.996094 256.0625 194.382812 256.066406 194.851562 L 256.117188 201.726562 L 254.320312 199.636719 C 253.539062 198.726562 252.175781 198.632812 251.273438 199.410156 C 250.371094 200.1875 250.269531 201.550781 251.046875 202.453125 L 256.652344 208.960938 C 257.527344 209.980469 259.097656 209.949219 259.945312 208.9375 L 265.539062 202.265625 C 266.304688 201.351562 266.183594 199.992188 265.269531 199.222656 C 264.363281 198.464844 262.996094 198.574219 262.226562 199.492188 L 260.4375 201.632812 L 260.382812 194.820312 C 260.363281 192.015625 258.066406 189.707031 255.261719 189.675781 L 224.0625 189.320312 C 223.589844 189.316406 223.207031 188.925781 223.207031 188.453125 L 223.207031 183.117188 C 223.207031 181.925781 222.238281 180.960938 221.046875 180.960938 Z M 221.046875 180.960938 " fill-opacity="1" fill-rule="nonzero"/><path fill="#ffffff" d="M 173.535156 180.960938 C 172.34375 180.960938 171.378906 181.925781 171.378906 183.117188 L 171.378906 188.453125 C 171.378906 188.925781 170.996094 189.316406 170.523438 189.320312 L 139.320312 189.675781 C 136.515625 189.707031 134.21875 192.015625 134.199219 194.820312 L 134.148438 201.632812 L 132.351562 199.492188 C 131.585938 198.574219 130.21875 198.460938 129.308594 199.226562 C 128.394531 199.992188 128.277344 201.355469 129.042969 202.269531 L 134.640625 208.941406 C 135.523438 209.992188 137.089844 209.941406 137.929688 208.960938 L 143.535156 202.453125 C 144.316406 201.550781 144.214844 200.1875 143.308594 199.410156 C 142.410156 198.632812 141.046875 198.726562 140.265625 199.636719 L 138.464844 201.726562 L 138.519531 194.851562 C 138.519531 194.382812 138.90625 193.996094 139.371094 193.992188 L 170.574219 193.636719 C 173.398438 193.605469 175.695312 191.28125 175.695312 188.453125 L 175.695312 183.117188 C 175.695312 181.925781 174.726562 180.960938 173.535156 180.960938 Z M 173.535156 180.960938 " fill-opacity="1" fill-rule="nonzero"/><path fill="#ffffff" d="M 295.070312 224.882812 C 295.070312 220.164062 291.234375 216.328125 286.519531 216.328125 L 241.667969 216.328125 C 236.949219 216.328125 233.113281 220.164062 233.113281 224.882812 L 233.113281 264.496094 C 233.113281 269.210938 236.949219 273.046875 241.667969 273.046875 L 286.519531 273.046875 C 291.234375 273.046875 295.070312 269.210938 295.070312 264.496094 Z M 237.429688 233.800781 L 290.75 233.800781 L 290.75 254.351562 C 248.460938 254.359375 345.746094 254.34375 237.429688 254.359375 Z M 241.667969 220.644531 L 286.519531 220.644531 C 288.851562 220.644531 290.75 222.546875 290.75 224.882812 L 290.75 229.484375 L 237.429688 229.484375 L 237.429688 224.882812 C 237.429688 222.546875 239.332031 220.644531 241.667969 220.644531 Z M 286.519531 268.730469 L 241.667969 268.730469 C 239.332031 268.730469 237.429688 266.828125 237.429688 264.496094 L 237.429688 258.664062 C 319.726562 258.675781 278.964844 258.667969 290.75 258.671875 L 290.75 264.496094 C 290.75 266.828125 288.851562 268.730469 286.519531 268.730469 Z M 286.519531 268.730469 " fill-opacity="1" fill-rule="nonzero"/><path fill="#ffffff" d="M 246.625 246.488281 L 248.046875 246.488281 C 249.238281 246.488281 250.207031 245.523438 250.207031 244.332031 C 250.207031 243.140625 249.238281 242.171875 248.046875 242.171875 L 246.625 242.171875 C 245.433594 242.171875 244.464844 243.140625 244.464844 244.332031 C 244.464844 245.523438 245.433594 246.488281 246.625 246.488281 Z M 246.625 246.488281 " fill-opacity="1" fill-rule="nonzero"/><path fill="#ffffff" d="M 278.253906 227.589844 L 282.71875 227.589844 C 283.910156 227.589844 284.875 226.625 284.875 225.433594 C 284.875 224.238281 283.910156 223.273438 282.71875 223.273438 L 278.253906 223.273438 C 277.0625 223.273438 276.09375 224.238281 276.09375 225.433594 C 276.09375 226.625 277.0625 227.589844 278.253906 227.589844 Z M 278.253906 227.589844 " fill-opacity="1" fill-rule="nonzero"/><path fill="#ffffff" d="M 258.132812 246.488281 L 282.71875 246.488281 C 283.910156 246.488281 284.875 245.523438 284.875 244.332031 C 284.875 243.140625 283.910156 242.171875 282.71875 242.171875 L 258.132812 242.171875 C 256.941406 242.171875 255.976562 243.140625 255.976562 244.332031 C 255.976562 245.523438 256.941406 246.488281 258.132812 246.488281 Z M 258.132812 246.488281 " fill-opacity="1" fill-rule="nonzero"/><path fill="#ffffff" d="M 265.535156 261.566406 L 259.605469 261.566406 C 258.414062 261.566406 257.449219 262.535156 257.449219 263.726562 C 257.449219 264.917969 258.414062 265.882812 259.605469 265.882812 L 265.535156 265.882812 C 266.726562 265.882812 267.691406 264.917969 267.691406 263.726562 C 267.691406 262.535156 266.726562 261.566406 265.535156 261.566406 Z M 265.535156 261.566406 " fill-opacity="1" fill-rule="nonzero"/><path fill="#ffffff" d="M 246.929688 225.027344 C 246.929688 226.4375 245.78125 227.589844 244.371094 227.589844 C 242.957031 227.589844 241.808594 226.4375 241.808594 225.027344 C 241.808594 223.617188 242.957031 222.496094 244.371094 222.496094 C 245.78125 222.496094 246.929688 223.617188 246.929688 225.027344 Z M 246.929688 225.027344 " fill-opacity="1" fill-rule="nonzero"/></svg>