<svg xmlns="http://www.w3.org/2000/svg" xmlns:xlink="http://www.w3.org/1999/xlink" width="512" zoomAndPan="magnify" viewBox="0 0 384 383.999986" height="512" preserveAspectRatio="xMidYMid meet" version="1.0"><defs><clipPath id="5b3d10b7c5"><path d="M 231 181 L 302.546875 181 L 302.546875 231 L 231 231 Z M 231 181 " clip-rule="nonzero"/></clipPath><clipPath id="f515863f77"><path d="M 99.296875 92.332031 L 278 92.332031 L 278 222 L 99.296875 222 Z M 99.296875 92.332031 " clip-rule="nonzero"/></clipPath><clipPath id="db4e4ef5db"><path d="M 131 249 L 246 249 L 246 258.082031 L 131 258.082031 Z M 131 249 " clip-rule="nonzero"/></clipPath></defs><g clip-path="url(#5b3d10b7c5)"><path fill="#ffffff" d="M 302.304688 230.542969 L 231.191406 230.542969 L 231.191406 181.964844 L 302.304688 181.964844 Z M 270.308594 210.609375 C 273.214844 209.261719 275.238281 206.320312 275.238281 202.902344 C 275.238281 198.21875 271.441406 194.40625 266.738281 194.40625 C 262.058594 194.40625 258.261719 198.21875 258.261719 202.902344 C 258.261719 206.320312 260.28125 209.261719 263.191406 210.609375 L 263.191406 218.105469 L 270.308594 218.105469 L 270.308594 210.609375 " fill-opacity="1" fill-rule="nonzero"/></g><path fill="#ffffff" d="M 294.992188 164.148438 L 294.992188 180.484375 L 284.457031 180.484375 L 284.457031 164.148438 C 284.457031 154.371094 276.519531 146.433594 266.738281 146.433594 C 256.976562 146.433594 249.039062 154.371094 249.039062 164.148438 L 249.039062 180.484375 L 238.507812 180.484375 L 238.507812 164.148438 C 238.507812 148.570312 251.175781 135.898438 266.738281 135.898438 C 282.320312 135.898438 294.992188 148.570312 294.992188 164.148438 " fill-opacity="1" fill-rule="nonzero"/><path fill="#ffffff" d="M 187.636719 193.175781 L 124.867188 193.175781 L 124.867188 173.378906 C 124.867188 161.898438 131.585938 152 141.316406 147.382812 C 145.480469 150.5 150.652344 152.355469 156.25 152.355469 C 161.851562 152.355469 167.007812 150.5 171.171875 147.382812 C 180.902344 151.988281 187.636719 161.898438 187.636719 173.378906 L 187.636719 193.175781 " fill-opacity="1" fill-rule="nonzero"/><g clip-path="url(#f515863f77)"><path fill="#ffffff" d="M 226.253906 221.152344 L 99.460938 221.152344 L 99.460938 92.332031 L 277.058594 92.332031 L 277.058594 129.199219 L 266.738281 129.199219 L 266.738281 100.691406 L 109.777344 100.691406 L 109.777344 210.382812 L 226.253906 210.382812 L 226.253906 221.152344 " fill-opacity="1" fill-rule="nonzero"/></g><path fill="#ffffff" d="M 231.191406 135.191406 L 231.191406 139.382812 L 194.136719 139.382812 L 194.136719 135.191406 L 231.191406 135.191406 " fill-opacity="1" fill-rule="nonzero"/><path fill="#ffffff" d="M 160.328125 224.246094 L 216.1875 224.246094 L 216.1875 245.429688 L 160.328125 245.429688 L 160.328125 224.246094 " fill-opacity="1" fill-rule="nonzero"/><path fill="#ffffff" d="M 245.191406 117.1875 L 245.191406 121.378906 L 194.136719 121.378906 L 194.136719 117.1875 L 245.191406 117.1875 " fill-opacity="1" fill-rule="nonzero"/><path fill="#ffffff" d="M 194.136719 159.234375 L 194.136719 155.039062 L 216.1875 155.039062 L 216.1875 159.234375 L 194.136719 159.234375 " fill-opacity="1" fill-rule="nonzero"/><g clip-path="url(#db4e4ef5db)"><path fill="#ffffff" d="M 245.191406 249.308594 L 245.191406 258.417969 L 131.324219 258.417969 L 131.324219 249.308594 L 245.191406 249.308594 " fill-opacity="1" fill-rule="nonzero"/></g><path fill="#ffffff" d="M 194.136719 193.355469 L 194.136719 189.160156 L 216.1875 189.160156 L 216.1875 193.355469 L 194.136719 193.355469 " fill-opacity="1" fill-rule="nonzero"/><path fill="#ffffff" d="M 156.25 147.574219 C 148.050781 147.574219 141.414062 140.9375 141.414062 132.738281 C 141.414062 124.546875 148.050781 117.898438 156.25 117.898438 C 164.4375 117.898438 171.085938 124.546875 171.085938 132.738281 C 171.085938 140.9375 164.4375 147.574219 156.25 147.574219 " fill-opacity="1" fill-rule="nonzero"/><path fill="#ffffff" d="M 194.136719 173.285156 L 216.1875 173.285156 L 216.1875 177.480469 L 194.136719 177.480469 L 194.136719 173.285156 " fill-opacity="1" fill-rule="nonzero"/></svg>